<svg width="226" height="38" viewBox="0 0 226 38" fill="none" xmlns="http://www.w3.org/2000/svg">
<path d="M56.6434 25.0203V36.9996H52V9.06395C52 7.75446 53.0424 6.68747 54.3217 6.68747C55.601 6.68747 56.6434 7.75446 56.6434 9.06395V9.45194C58.0648 7.51196 60.4339 6.25098 63.2294 6.25098C68.3466 6.25098 73.2268 10.1794 73.2268 17.0664C73.2268 23.9048 68.157 27.8332 63.2768 27.8332C60.4813 27.8817 58.0648 26.8632 56.6434 25.0203ZM68.6308 17.0178C68.6308 13.4289 65.9775 10.6159 62.5187 10.6159C58.9651 10.6159 56.4065 13.5259 56.5012 17.1633C56.596 20.7038 59.4389 23.6623 62.8977 23.4683C66.1196 23.2743 68.6308 20.5098 68.6308 17.0178Z" fill="white"/>
<path d="M75.1699 2.54314L75.1699 27.4455H79.9081L79.9081 2.54314C79.9081 1.23365 78.8657 0.118164 77.539 0.118164C76.2123 0.118164 75.1699 1.23365 75.1699 2.54314Z" fill="white"/>
<path d="M81.9453 17.1148C81.9453 11.0524 86.5413 6.25098 92.464 6.25098C98.4814 6.25098 102.888 10.8099 102.888 16.9209V18.7153H86.3992C87.0625 21.6738 89.2894 23.6138 92.6535 23.6138C95.3068 23.6138 97.2969 22.2073 98.2919 19.9763L102.13 22.2558C100.377 25.6507 97.2495 27.8817 92.6535 27.8817C86.257 27.8817 81.9453 23.1288 81.9453 17.1148ZM86.6361 14.7384H98.1497C97.439 11.9254 95.3542 10.4704 92.464 10.4704C89.6685 10.4704 87.4889 12.2164 86.6361 14.7384Z" fill="white"/>
<path d="M104.972 6.68779H109.616V9.25827C110.99 7.46379 113.027 6.2998 115.68 6.2998C120.798 6.2998 123.735 9.54926 123.735 15.1752V25.0691C123.735 26.4271 122.693 27.4941 121.366 27.4941C120.039 27.4941 118.997 26.4271 118.997 25.0691V15.6602C118.997 12.4107 117.481 10.4223 114.401 10.4223C111.748 10.4223 109.663 12.4107 109.663 16.0482V27.4456H104.972V6.68779Z" fill="white"/>
<path d="M125.773 17.1152C125.773 10.2283 130.701 6.2998 135.818 6.2998C138.472 6.2998 140.841 7.41529 142.357 9.20977V9.11277C142.357 7.80328 143.399 6.7363 144.679 6.7363C145.958 6.7363 147 7.80328 147 9.11277V27.4941H142.31V24.7781C140.841 26.7181 138.377 27.882 135.724 27.882C130.891 27.882 125.773 23.9051 125.773 17.1152ZM142.594 17.4547C142.831 13.7202 140.177 10.6648 136.529 10.6648C133.07 10.6648 130.369 13.4777 130.369 17.0667C130.369 20.6071 132.975 23.4201 136.339 23.5171C139.704 23.5656 142.404 20.8496 142.594 17.4547Z" fill="white"/>
<rect x="155" width="70.6364" height="37" rx="6.24669" fill="url(#paint0_linear_773_6113)"/>
<path d="M176.115 15.5217C176.036 15.2004 175.912 14.9184 175.742 14.6759C175.573 14.4273 175.36 14.2181 175.106 14.0483C174.857 13.8725 174.566 13.7421 174.233 13.6572C173.905 13.5663 173.544 13.5208 173.15 13.5208C172.301 13.5208 171.577 13.7239 170.977 14.1302C170.382 14.5364 169.928 15.1215 169.612 15.8855C169.303 16.6495 169.148 17.5711 169.148 18.6504C169.148 19.7418 169.297 20.6755 169.594 21.4516C169.891 22.2277 170.334 22.8219 170.922 23.2342C171.51 23.6465 172.241 23.8527 173.114 23.8527C173.884 23.8527 174.524 23.7405 175.033 23.5162C175.548 23.2918 175.933 22.9735 176.188 22.5612C176.443 22.1489 176.57 21.6638 176.57 21.106L177.443 21.197H173.187V17.5954H181.445V20.1783C181.445 21.8761 181.084 23.3282 180.363 24.5348C179.647 25.7354 178.659 26.657 177.398 27.2997C176.142 27.9363 174.702 28.2547 173.077 28.2547C171.265 28.2547 169.673 27.8696 168.303 27.0996C166.932 26.3296 165.862 25.2321 165.092 23.8072C164.328 22.3823 163.946 20.6876 163.946 18.7231C163.946 17.1831 164.18 15.8188 164.646 14.6304C165.119 13.442 165.774 12.4385 166.611 11.62C167.448 10.7954 168.415 10.1739 169.512 9.7555C170.61 9.33107 171.786 9.11886 173.041 9.11886C174.145 9.11886 175.169 9.2765 176.115 9.59179C177.067 9.90102 177.907 10.3436 178.635 10.9197C179.368 11.4896 179.959 12.1657 180.408 12.9478C180.857 13.73 181.13 14.588 181.227 15.5217H176.115ZM183.803 28V9.37352H191.843C193.225 9.37352 194.435 9.64636 195.472 10.1921C196.508 10.7378 197.315 11.5048 197.891 12.4931C198.467 13.4814 198.755 14.6365 198.755 15.9583C198.755 17.2922 198.458 18.4473 197.864 19.4234C197.275 20.3996 196.448 21.1515 195.381 21.679C194.32 22.2065 193.08 22.4703 191.661 22.4703H186.859V18.5412H190.642C191.236 18.5412 191.743 18.4382 192.161 18.232C192.585 18.0198 192.91 17.7197 193.134 17.3316C193.365 16.9436 193.48 16.4858 193.48 15.9583C193.48 15.4247 193.365 14.9699 193.134 14.594C192.91 14.212 192.585 13.921 192.161 13.7209C191.743 13.5148 191.236 13.4117 190.642 13.4117H188.86V28H183.803ZM200.101 13.4481V9.37352H216.29V13.4481H210.687V28H205.703V13.4481H200.101Z" fill="black"/>
<mask id="mask0_773_6113" style="mask-type:alpha" maskUnits="userSpaceOnUse" x="0" y="0" width="43" height="38">
<path d="M12.0161 14.8434L11.7142 15.841C11.352 17.0568 10.2652 17.8985 8.99731 17.8985C7.09548 17.8985 5.73702 15.9968 6.28041 14.1264L6.58228 13.1288C6.94454 11.913 8.0313 11.0713 9.29919 11.0713C11.201 11.0713 12.5595 12.9729 12.0161 14.8434Z" fill="black"/>
<path d="M42.0524 14.5004C42.0524 22.4187 35.8337 28.8406 28.166 28.8406H17.6305L16.0305 36.0107C15.8796 36.7277 15.2456 37.2265 14.5513 37.2265H13.8268C11.4118 37.2265 9.6005 34.8884 10.1439 32.4568L10.959 28.8406L12.0457 23.915C12.2872 22.7616 13.2834 21.951 14.4004 21.951H24.0605C24.9359 21.951 25.7208 21.3899 25.9925 20.5482C26.0529 20.33 26.083 20.1118 26.083 19.9247C26.083 18.8336 25.2378 17.8984 24.1208 17.8984H17.5097C15.9098 17.8984 14.6117 16.7138 14.3098 15.2486C14.2192 14.7809 14.189 14.2822 14.3098 13.7834V13.7522V13.6898C14.6721 12.1311 16.0003 11.04 17.5399 11.04H26.5057C27.3509 11.04 28.166 10.5101 28.4377 9.66834C28.4981 9.45012 28.5585 9.2319 28.5585 8.98251C28.5585 7.8914 27.7132 6.95617 26.5962 6.95617H3.32143C1.08753 7.01852 -0.512424 4.77396 0.151709 2.59176C0.574338 1.12656 1.87241 0.160156 3.32143 0.160156H28.166C35.8337 0.160156 42.0524 6.58208 42.0524 14.5004Z" fill="black"/>
</mask>
<g mask="url(#mask0_773_6113)">
<path d="M-7.47754 49.5811L-7.47754 -0.870663L46.3628 -0.870665L46.3628 49.5811L-7.47754 49.5811Z" fill="url(#paint1_radial_773_6113)"/>
</g>
<defs>
<linearGradient id="paint0_linear_773_6113" x1="157" y1="5" x2="221.5" y2="37" gradientUnits="userSpaceOnUse">
<stop stop-color="white" stop-opacity="0.93"/>
<stop offset="0.5625" stop-color="white"/>
<stop offset="1" stop-color="white" stop-opacity="0.68"/>
</linearGradient>
<radialGradient id="paint1_radial_773_6113" cx="0" cy="0" r="1" gradientUnits="userSpaceOnUse" gradientTransform="translate(1.778 27.0687) rotate(-36.3081) scale(38.2405 35.0511)">
<stop stop-color="#85EAFF"/>
<stop offset="0.706211" stop-color="#DADADA"/>
<stop offset="1" stop-color="#FFCB80"/>
</radialGradient>
</defs>
</svg>
